<svg width="1293" height="429" viewBox="0 0 1293 429" fill="none" xmlns="http://www.w3.org/2000/svg">
<path fill-rule="evenodd" clip-rule="evenodd" d="M812.89 224.914C801.503 226.227 792.765 226.07 786.676 224.441C780.587 222.813 775.786 219.349 772.271 214.05C768.439 205.946 766.314 201.301 765.895 200.117C763.84 194.312 763.612 188.606 764.005 184.767C764.519 179.753 767.274 173.219 772.271 165.166C772.982 159.566 774.163 154.607 775.813 150.288C777.463 145.969 780.769 139.75 785.731 131.631L786.44 104.945C788.534 98.837 790.502 94.5078 792.344 91.9568C794.186 89.4062 796.312 88.068 798.72 87.9423C800.753 87.7495 802.642 88.2217 804.388 89.3594C806.134 90.4967 809.44 93.4093 814.307 98.0973C818.325 91.0837 822.891 85.7307 828.004 82.0381C833.116 78.346 839.886 75.5119 848.313 73.5366L849.494 71.1751L849.636 57.2841L845.716 23.4712H840.52L848.549 11.6634C849.266 9.06162 849.974 7.17233 850.675 5.9956C851.375 4.81888 852.683 3.48073 854.599 1.98112C854.634 1.5463 856.21 1.30996 859.326 1.2721C862.443 1.23424 867.352 1.39183 874.054 1.74478C876.915 2.40194 878.883 3.26788 879.958 4.34251C881.032 5.41714 881.977 7.70003 882.792 11.1911L894.304 23.4877L887.043 23.9434L886.334 46.3785C885.324 50.2261 884.38 52.8239 883.5 54.172C882.621 55.5196 881.205 56.5429 879.25 57.242L867.678 57.9501L866.261 71.6473L867.206 73.5366C873.116 75.2259 877.131 76.5641 879.25 77.5515C884.339 79.922 888.942 83.3545 892.474 89.3594C894.947 93.5629 897.506 99.3702 900.976 105.418C904.031 110.742 909.62 120.11 917.743 133.521L925.772 140.606L929.787 148.635L939.469 155.956L943.957 141.314C934.825 127.459 930.259 118.643 930.259 114.864C930.259 113.285 931.213 111.796 932.149 110.85C933.451 109.531 935.24 108.721 938.289 108.96C940.321 109.12 942.289 110.379 944.192 112.739L971.351 185.712C968.647 194.57 966.288 201.182 964.265 205.549C962.247 209.915 959.255 214.245 955.292 218.538C949.582 221.74 944.78 223.629 940.887 224.205C936.992 224.781 930.616 224.23 921.758 222.552C918.656 221.132 916.609 219.794 915.618 218.538C911.943 213.879 910.406 207.97 908.533 204.84C905.902 200.444 904.328 196.351 903.81 192.56L891.53 152.649L838.395 150.996L833.435 191.38C830.725 202.355 827.812 210.384 824.698 215.468C821.583 220.551 817.647 223.7 812.89 224.914Z" fill="white"/>
<path fill-rule="evenodd" clip-rule="evenodd" d="M816.55 233.613C815.588 233.439 814.879 233.354 814.423 233.356C812.672 233.363 811.242 233.273 810.405 231.938C809.241 230.08 809.556 227.875 811.351 225.32L816.314 223.666H818.677L835.93 224.375L841.366 223.666L860.509 222.957C862.557 223.902 863.266 225.714 862.636 228.393C862.006 231.071 860.273 232.726 857.437 233.356L851.764 233.613L813.478 409.17H788.898C793.106 381.59 796.493 360.848 799.061 346.944C801.629 333.04 807.458 295.263 816.55 233.613ZM876.58 233.613C876.543 233.055 875.046 232.969 872.089 233.356C869.569 232.095 868.544 230.126 869.017 227.447C869.49 224.769 870.671 223.351 872.562 223.193L876.107 223.666H886.979L897.85 224.375L909.904 223.193C913.685 223.508 915.576 225.241 915.576 228.393C915.576 230.184 914.972 231.114 914.158 231.938C913.746 232.355 912.958 232.828 911.794 233.356L908.013 233.613L917.703 409.406H892.178C888.74 377.793 886.534 355.632 885.561 342.922C884.402 327.784 877.845 252.54 876.58 233.613Z" fill="white"/>
<path fill-rule="evenodd" clip-rule="evenodd" d="M816.245 233.022H852.205L813.764 409.288H788.486L788.549 408.88C792.756 381.3 796.144 360.553 798.713 346.644C801.279 332.747 807.108 294.978 816.2 233.325L816.245 233.022ZM816.857 233.731C807.791 295.2 801.975 332.883 799.41 346.773C796.856 360.602 793.491 381.204 789.312 408.579H813.193L851.325 233.731H816.857ZM876.202 233.022H908.349L918.078 409.525H891.861L891.826 409.209C888.388 377.596 886.182 355.429 885.208 342.713C884.774 337.049 883.583 322.951 882.196 306.537C879.88 279.12 877.018 245.239 876.227 233.401L876.202 233.022ZM876.96 233.731C877.785 245.896 880.609 279.326 882.901 306.449C884.288 322.872 885.48 336.982 885.915 342.659C886.884 355.32 889.078 377.371 892.497 408.816H917.329L907.678 233.731H876.96Z" fill="black"/>
<path fill-rule="evenodd" clip-rule="evenodd" d="M838.53 76.7478L811.883 76.8731C798.589 76.9355 787.659 87.3707 786.982 100.648L786.535 109.398C786.952 104.899 787.503 101.744 788.19 99.9345C789.28 97.062 790.538 95.41 791.971 93.5462C794.137 90.7282 796.59 88.3506 798.588 87.868C803.158 86.7638 808.278 90.3127 813.95 98.515C814.9 96.6773 815.688 95.2578 816.314 94.2562C817.563 92.2558 818.892 90.0962 821.277 87.868C826.004 83.4513 831.755 79.7446 838.53 76.7478Z" fill="#5D8CFF"/>
<path fill-rule="evenodd" clip-rule="evenodd" d="M816.787 223.203C819.218 224.089 823.787 224.484 830.495 224.386C834.147 224.332 840.722 223.242 846.329 222.966C849.457 222.812 854.183 222.812 860.51 222.966L865.945 208.534H871.145L872.799 222.966C878.33 223.312 882.269 223.549 884.616 223.676C889.664 223.949 893.863 224.149 897.142 224.149C902.709 224.149 906.805 223.755 909.432 222.966L897.378 155.535L841.366 157.665C840.634 167.933 837.956 179.211 833.331 191.498C832.345 194.117 832.187 197.427 831.204 200.725C829.704 205.752 828.053 210.613 826.241 213.975C824.521 217.165 821.37 220.24 816.787 223.203Z" fill="#5D8CFF"/>
<path d="M909.057 223.124L903.646 191.559C903.612 191.365 903.742 191.182 903.935 191.149C904.128 191.116 904.311 191.245 904.344 191.439L909.729 222.848H910.494C913.496 222.848 915.93 225.284 915.93 228.29C915.93 231.295 913.496 233.732 910.494 233.732H873.202C870.541 233.732 868.383 231.572 868.383 228.907C868.383 228.685 868.399 228.462 868.429 228.241L868.712 226.209C868.968 224.381 870.383 222.951 872.175 222.656L870.822 208.889H866.19L860.995 222.683C862.444 223.018 863.47 224.372 863.353 225.903C863.342 226.034 863.324 226.166 863.297 226.295L862.864 228.363C862.211 231.491 859.455 233.732 856.263 233.732H813.027C811.035 233.732 809.42 232.115 809.42 230.12C809.42 229.743 809.479 229.368 809.595 229.009C809.911 228.033 810.304 226.773 810.775 225.228C810.832 225.041 811.03 224.936 811.218 224.993C811.405 225.05 811.51 225.249 811.453 225.436C810.981 226.984 810.586 228.247 810.27 229.227C810.176 229.516 810.129 229.817 810.129 230.12C810.129 231.723 811.426 233.022 813.027 233.022H856.263C859.119 233.022 861.585 231.017 862.171 228.217L862.603 226.15C862.624 226.05 862.638 225.949 862.646 225.848C862.745 224.555 861.781 223.426 860.491 223.321C857.559 223.264 855.484 223.234 854.268 223.233C850.978 223.229 841.699 223.768 839.758 224.028C835.351 224.618 833.018 224.703 829.206 224.575C829.082 224.57 829.082 224.57 828.958 224.566C827.596 224.52 826.945 224.504 826.076 224.504C822.923 224.504 820.568 224.425 819.005 224.266C817.171 224.079 816.341 223.818 816.435 223.153L817.137 223.253C817.144 223.202 817.13 223.163 817.121 223.146C817.17 223.184 817.272 223.231 817.423 223.279C817.771 223.388 818.325 223.483 819.077 223.56C820.611 223.716 822.946 223.794 826.076 223.794C826.955 223.794 827.613 223.81 828.982 223.857C829.106 223.861 829.106 223.861 829.23 223.865C833.005 223.993 835.3 223.909 839.664 223.325C841.639 223.06 850.949 222.519 854.269 222.523C855.457 222.524 857.455 222.552 860.265 222.607L865.613 208.409C865.665 208.27 865.797 208.179 865.944 208.179H871.144H874.216C874.412 208.179 874.571 208.338 874.571 208.534C874.571 208.73 874.412 208.889 874.216 208.889H871.535L872.891 222.695C874.457 222.953 877.585 223.085 882.252 223.085C884.006 223.085 892.581 223.564 895.047 223.796C897.858 224.06 902.532 223.837 909.057 223.124ZM909.444 223.558L909.47 223.792C902.725 224.54 897.9 224.778 894.981 224.503C892.535 224.273 883.982 223.794 882.252 223.794C877.261 223.794 874.017 223.646 872.493 223.344L872.496 223.329C870.911 223.493 869.636 224.719 869.415 226.307L869.132 228.339C869.105 228.527 869.092 228.717 869.092 228.907C869.092 231.18 870.932 233.022 873.202 233.022H910.494C913.105 233.022 915.221 230.903 915.221 228.29C915.221 225.677 913.105 223.558 910.494 223.558H909.444Z" fill="black"/>
<path d="M868.173 57.9382L866.797 72.4796C877.999 76.2913 885.162 79.6014 888.314 82.4389C892.4 86.1182 902.874 107.382 908.241 121.337C909.862 125.552 912.375 128.222 918.472 133.163L918.985 133.578C925.109 138.54 927.612 141.22 929.144 145.478C931.51 152.052 936.245 153.632 943.551 150.245C943.728 150.163 943.939 150.24 944.021 150.418C944.104 150.596 944.027 150.806 943.849 150.889C936.185 154.442 930.993 152.709 928.477 145.718C927.003 141.623 924.564 139.012 918.539 134.13L918.027 133.714C911.835 128.697 909.26 125.962 907.58 121.593C902.259 107.76 891.806 86.5384 887.839 82.9664C884.758 80.1923 877.57 76.8812 866.304 73.0615C866.148 73.009 866.049 72.8559 866.064 72.6918L867.46 57.9382H863.345C863.149 57.9382 862.991 57.7789 862.991 57.5832C862.991 57.387 863.149 57.2282 863.345 57.2282H867.845C867.848 57.2282 867.851 57.2282 867.853 57.2282H875.726C880.604 57.2282 883.434 55.2425 884.911 51.23C886.099 48.0054 886.388 44.2783 886.388 36.3109V30.8841C886.388 30.8094 886.388 30.7484 886.388 30.6104C886.392 27.9719 886.27 26.4523 885.705 24.1343C885.692 24.1206 885.676 24.1035 885.656 24.0837C885.601 24.0284 885.524 23.9561 885.426 23.8677H851.626C851.43 23.8677 851.271 23.7089 851.271 23.5127C851.271 23.3165 851.43 23.1577 851.626 23.1577H885.561C885.647 23.1577 885.731 23.1894 885.796 23.247C886.214 23.6181 886.339 23.7424 886.378 23.9012C886.973 26.3218 887.101 27.8963 887.097 30.6109C887.097 30.7489 887.097 30.8094 887.097 30.8841V36.3109C887.097 44.3681 886.804 48.142 885.577 51.4753C883.997 55.7662 880.902 57.9382 875.726 57.9382H868.173ZM971.72 185.246L972.401 185.447C966.464 205.637 960.154 217.406 953.404 220.776C942.776 226.079 929.78 226.487 919.201 221.293C917.803 220.606 916.706 219.647 915.591 218.174C914.797 217.124 914.014 215.86 912.763 213.666C912.436 213.092 911.189 210.882 911.005 210.558C910.222 209.176 909.546 208 908.824 206.774C907.836 205.095 906.434 201.388 904.603 195.628L905.278 195.413C907.093 201.121 908.483 204.796 909.435 206.414C910.159 207.643 910.837 208.823 911.622 210.208C911.807 210.533 913.053 212.742 913.379 213.314C914.615 215.483 915.386 216.727 916.157 217.746C917.207 219.135 918.221 220.021 919.513 220.656C929.887 225.749 942.651 225.348 953.088 220.14C959.601 216.891 965.836 205.253 971.72 185.246Z" fill="black"/>
<path fill-rule="evenodd" clip-rule="evenodd" d="M874.453 75.801L878.707 77.4573C881.7 86.606 883.985 94.4136 885.561 100.881C887.136 107.348 888.16 116.97 888.633 129.746L882.725 128.09C883.197 117.837 882.331 108.767 880.125 100.881C879.164 97.4458 877.273 89.0861 874.453 75.801ZM838.293 76.7478L842.311 75.0916C843.256 82.0843 843.729 87.6052 843.729 91.6537C843.729 95.7021 843.729 99.8031 843.729 103.956L837.584 112.711C838.529 109.872 839.002 103.483 839.002 93.5463C839.002 83.6092 838.766 78.0094 838.293 76.7478Z" fill="#5D8CFF"/>
<path d="M874.341 75.8755L874.204 75.2326L879.226 77.1876L879.278 77.3474C882.275 86.5041 884.562 94.3203 886.14 100.797C887.722 107.292 888.749 116.935 889.222 129.733L889.24 130.219L882.592 128.356L882.605 128.074C883.076 117.857 882.213 108.825 880.018 100.977C879.054 97.5316 877.163 89.1681 874.341 75.8755ZM880.701 100.786C882.897 108.639 883.772 117.652 883.326 127.825L888.495 129.273C888.015 116.761 887 107.322 885.451 100.965C883.887 94.5457 881.622 86.7995 878.657 77.7279L875.171 76.3704C877.914 89.2744 879.759 97.4163 880.701 100.786ZM838.196 76.8728L838.075 76.5509L842.835 74.5884L842.897 75.044C843.844 82.0515 844.318 87.5865 844.318 91.6539V104.069L836.717 114.898L837.483 112.599C838.411 109.809 838.882 103.444 838.882 93.5465C838.882 83.6879 838.645 78.0725 838.196 76.8728ZM839.591 93.5465C839.591 101.751 839.271 107.544 838.622 110.95L843.609 103.845V91.6539C843.609 87.7118 843.158 82.3578 842.255 75.5952L838.958 76.9546C839.386 78.7314 839.591 84.2154 839.591 93.5465Z" fill="black"/>
<path d="M867.732 76.8486L868.412 76.6467L900.562 185.28C902.4 194.882 909.021 199.661 920.539 199.661C932.062 199.661 941.536 191.961 948.971 176.493L949.609 176.801C942.067 192.492 932.374 200.371 920.539 200.371C908.699 200.371 901.771 195.371 899.874 185.448L867.732 76.8486ZM885.211 164.709L885.911 164.817C882.263 188.477 875.406 200.371 865.236 200.371C857.008 200.371 851.534 174.745 849.284 125.74C848.859 116.5 848.623 100.722 848.574 78.4046L849.283 78.4032C849.332 100.711 849.568 116.481 849.992 125.708C852.213 174.074 857.679 199.661 865.236 199.661C874.919 199.661 881.611 188.053 885.211 164.709Z" fill="black"/>
<path fill-rule="evenodd" clip-rule="evenodd" d="M920.53 153.07L945.294 150.467L946.759 164.403L921.995 167.006L920.53 153.07ZM897.561 128.087L895.234 105.944C896.168 103.55 898.628 102.143 902.615 101.724C906.601 101.305 909.3 102.169 910.712 104.317L913.039 126.46L897.561 128.087ZM962.566 121.255L947.089 122.881L944.762 100.739C945.696 98.344 948.156 96.9373 952.143 96.5185C956.129 96.0998 958.827 96.9638 960.241 99.1116L962.566 121.255Z" fill="black"/>
<path fill-rule="evenodd" clip-rule="evenodd" d="M895.614 152.674L892.018 118.454C893.524 114.747 897.468 112.558 903.846 111.887C910.225 111.217 914.536 112.538 916.782 115.851L920.378 150.072L895.614 152.674ZM969.904 144.866L945.142 147.469L941.545 113.248C943.052 109.541 946.995 107.353 953.374 106.682C959.751 106.012 964.062 107.333 966.307 110.645L969.904 144.866Z" fill="white"/>
<path fill-rule="evenodd" clip-rule="evenodd" d="M895.46 152.77L891.863 118.55C893.371 114.843 897.313 112.654 903.692 111.984C910.07 111.313 914.383 112.635 916.627 115.947L920.224 150.168L895.46 152.77ZM969.75 144.962L944.988 147.565L941.391 113.345C942.898 109.637 946.841 107.449 953.22 106.778C959.597 106.108 963.908 107.429 966.153 110.741L969.75 144.962Z" fill="white"/>
<path fill-rule="evenodd" clip-rule="evenodd" d="M965.811 110.868C963.662 107.771 959.54 106.47 953.258 107.13C946.974 107.791 943.211 109.921 941.754 113.396L945.304 147.175L969.361 144.647L965.811 110.868ZM953.183 106.425C959.607 105.75 964.091 107.066 966.447 110.542C966.48 110.591 966.5 110.646 966.506 110.704L970.104 144.925C970.124 145.12 969.983 145.294 969.788 145.315L945.026 147.918C944.932 147.927 944.839 147.9 944.766 147.841C944.693 147.781 944.646 147.696 944.636 147.602L941.04 113.381C941.034 113.323 941.042 113.265 941.064 113.211C942.645 109.32 946.759 107.101 953.183 106.425L953.221 106.778L953.183 106.425ZM916.285 116.073C914.137 112.977 910.014 111.676 903.73 112.336C897.446 112.997 893.684 115.126 892.226 118.602L895.777 152.381L919.835 149.852L916.285 116.073ZM903.656 111.631C910.08 110.956 914.566 112.272 916.922 115.748C916.954 115.796 916.975 115.852 916.981 115.91L920.577 150.131C920.587 150.224 920.56 150.318 920.5 150.391C920.441 150.464 920.355 150.51 920.262 150.52L895.498 153.123C895.304 153.143 895.129 153.002 895.109 152.807L891.512 118.587C891.506 118.529 891.514 118.47 891.536 118.416C893.118 114.526 897.231 112.306 903.656 111.631L903.656 111.631Z" fill="black"/>
<path fill-rule="evenodd" clip-rule="evenodd" d="M894.85 190.603L890.689 151.014C892.842 146.683 898.304 144.056 907.074 143.134C915.845 142.212 921.733 143.646 924.74 147.435L928.901 187.024L894.85 190.603ZM978.426 181.818L944.378 185.397L940.217 145.808C942.37 141.477 947.831 138.85 956.602 137.928C965.371 137.007 971.26 138.44 974.267 142.23L978.426 181.818Z" fill="white"/>
<path d="M894.781 190.967C894.587 190.987 894.412 190.846 894.391 190.651L890.23 151.062C890.223 150.995 890.236 150.927 890.266 150.867C892.484 146.403 898.052 143.726 906.931 142.792C915.81 141.859 921.813 143.321 924.911 147.226C924.953 147.279 924.979 147.342 924.986 147.409L929.147 186.998C929.167 187.193 929.026 187.367 928.832 187.388L894.781 190.967ZM928.405 186.719L924.292 147.587C921.357 143.973 915.605 142.594 907.005 143.498C898.406 144.402 893.066 146.947 890.947 151.092L895.059 190.224L928.405 186.719ZM978.675 181.793C978.694 181.987 978.552 182.162 978.358 182.183L944.309 185.761C944.114 185.782 943.94 185.64 943.919 185.445L939.758 145.857C939.751 145.79 939.763 145.722 939.793 145.662C942.012 141.198 947.58 138.52 956.459 137.587C965.336 136.653 971.339 138.115 974.44 142.02C974.482 142.073 974.506 142.136 974.515 142.204L978.675 181.793ZM977.933 181.514L973.82 142.382C970.885 138.768 965.133 137.389 956.533 138.293C947.933 139.196 942.594 141.741 940.474 145.886L944.587 185.018L977.933 181.514Z" fill="black"/>
<path fill-rule="evenodd" clip-rule="evenodd" d="M912.379 194.631C902.976 195.62 895.081 193.821 894.744 190.614C894.407 187.407 901.756 184.006 911.158 183.018C920.561 182.03 928.457 183.828 928.794 187.035C929.131 190.242 921.782 193.643 912.379 194.631ZM961.909 189.426C952.504 190.414 944.608 188.615 944.271 185.408C943.934 182.202 951.283 178.801 960.684 177.812C970.091 176.824 977.984 178.623 978.32 181.83C978.66 185.036 971.31 188.437 961.909 189.426Z" fill="black"/>
<path d="M886.373 159.365C889.346 159.052 891.503 156.388 891.19 153.414C890.877 150.439 888.214 148.282 885.241 148.594C882.269 148.906 880.112 151.571 880.425 154.545C880.737 157.52 883.401 159.677 886.373 159.365ZM886.299 158.659C883.716 158.931 881.402 157.055 881.13 154.471C880.858 151.887 882.732 149.572 885.315 149.3C887.899 149.028 890.213 150.904 890.485 153.488C890.756 156.072 888.883 158.387 886.299 158.659Z" fill="black"/>
<path d="M772.893 165.221L777.669 163.483C777.853 163.415 778.057 163.51 778.124 163.695C778.19 163.879 778.096 164.082 777.911 164.15L773.665 165.695L777.971 168.242C778.139 168.342 778.195 168.56 778.096 168.728C777.996 168.897 777.779 168.953 777.61 168.854L772.802 166.01L772.712 166.042C772.67 166.058 772.627 166.064 772.585 166.064C763.906 177.635 761.898 189.051 766.538 200.354C771.061 211.373 773.094 215.305 776.521 218.7C780.471 222.613 785.912 224.647 795.319 225.689C813.058 227.654 823.418 221.769 828.033 208.652C830.915 200.456 832.565 194.718 832.978 191.454C833.003 191.259 833.181 191.121 833.374 191.146C833.569 191.171 833.706 191.348 833.682 191.543C833.26 194.871 831.6 200.647 828.701 208.888C823.973 222.329 813.295 228.395 795.241 226.394C785.69 225.336 780.105 223.249 776.022 219.205C772.502 215.717 770.444 211.737 765.882 200.624C761.116 189.014 763.218 177.273 772.163 165.445C773.126 153.436 777.48 142.196 785.222 131.731C792.941 121.299 800.894 113.455 809.087 108.204C814.624 93.5166 822.664 83.6806 833.21 78.7175C838.464 76.245 842.408 74.6015 845.047 73.7852C846.815 73.2383 848.073 73.0374 848.777 73.2591L849.992 50.9388C850.003 50.7431 850.17 50.5928 850.366 50.6028C850.561 50.6141 850.711 50.7814 850.7 50.9771L849.436 74.1969C849.411 74.6568 848.728 74.6379 848.728 74.1775C848.728 73.7431 847.634 73.7284 845.256 74.4635C842.655 75.2675 838.738 76.9001 833.511 79.3599C823.122 84.2493 815.187 93.977 809.709 108.564C809.682 108.636 809.633 108.697 809.568 108.739C801.42 113.94 793.493 121.744 785.792 132.154C778.188 142.432 773.89 153.453 772.893 165.221Z" fill="black"/>
<path fill-rule="evenodd" clip-rule="evenodd" d="M849.164 71.3059L845.844 79.7139C845.652 80.1998 845.89 80.7486 846.376 80.9405C846.567 81.0161 846.778 81.027 846.976 80.9721L861.157 77.0376L870.543 80.3808C871.035 80.5557 871.575 80.2991 871.75 79.8075C871.855 79.5135 871.808 79.1864 871.624 78.934L866.417 71.7791C865.451 72.6204 863.382 73.0411 860.209 73.0411C857.037 73.0411 853.355 72.4625 849.164 71.3059Z" fill="white"/>
<path d="M860.937 77.2965L847.308 81.0779C847.035 81.1535 846.745 81.1379 846.483 81.0339C845.815 80.7697 845.488 80.0139 845.751 79.3455L849.072 70.939C849.138 70.7707 849.321 70.6795 849.495 70.7277C853.657 71.8763 857.308 72.4497 860.446 72.4497C863.538 72.4497 865.539 72.0431 866.421 71.2751C866.578 71.1384 866.818 71.1659 866.94 71.3337L872.146 78.4862C872.399 78.8336 872.464 79.2836 872.32 79.6887C872.079 80.3656 871.336 80.7191 870.66 80.4785L861.648 77.2681C861.664 77.4028 861.682 77.5612 861.703 77.7427C861.792 78.5122 861.925 79.7057 862.102 81.3232C862.457 84.5568 862.989 89.4863 863.698 96.1114C863.718 96.3061 863.578 96.4815 863.383 96.5023C863.188 96.5231 863.013 96.3817 862.992 96.187C862.283 89.5624 861.752 84.6338 861.397 81.4007C861.22 79.7842 861.087 78.5921 860.999 77.824C860.975 77.6174 860.954 77.4416 860.937 77.2965ZM860.928 73.1563C861.006 73.4607 861.08 73.7991 861.151 74.1692C861.268 74.7724 861.358 75.3524 861.465 76.1176L861.511 76.4414C861.512 76.4504 861.513 76.4589 861.514 76.4674L870.897 79.8097C871.205 79.9194 871.543 79.7586 871.652 79.4509C871.717 79.2666 871.688 79.0619 871.573 78.904L866.579 72.0436C865.509 72.7574 863.631 73.1185 860.928 73.1563ZM860.816 76.5936C860.814 76.5771 860.811 76.5596 860.809 76.5407L860.763 76.2159C860.658 75.4615 860.568 74.892 860.455 74.3035C860.372 73.8729 860.286 73.4891 860.195 73.1587C857.125 73.1298 853.598 72.5749 849.614 71.4958L846.411 79.6064C846.291 79.9104 846.44 80.254 846.743 80.3741C846.863 80.4213 846.995 80.4284 847.118 80.3939L860.816 76.5936Z" fill="black"/>
<path fill-rule="evenodd" clip-rule="evenodd" d="M812.533 152.53C832.145 121.234 843.411 103.963 846.33 100.714C848.607 98.1794 852.509 97.971 855.044 100.249C856.941 101.953 857.594 104.65 856.687 107.034L849.638 125.557" fill="white"/>
<path d="M812.751 152.885C832.341 121.625 843.614 104.343 846.511 101.118C848.659 98.728 852.336 98.5332 854.724 100.683C856.511 102.293 857.125 104.836 856.27 107.085L849.225 125.598L849.887 125.851L856.932 107.338C857.892 104.815 857.203 101.961 855.198 100.156C852.519 97.7434 848.394 97.9618 845.984 100.644C843.044 103.916 831.785 121.176 812.15 152.508L812.751 152.885Z" fill="black"/>
<path fill-rule="evenodd" clip-rule="evenodd" d="M856.341 37.486C855.789 37.323 855.205 37.2355 854.601 37.2355C851.207 37.2355 848.456 39.9898 848.456 43.3874C848.456 46.274 850.442 48.696 853.121 49.3592L852.843 55.0833C852.768 56.6096 851.498 57.8031 849.97 57.7813L842.677 57.6792C842.209 57.6726 841.744 57.6027 841.295 57.4722C838.539 56.6687 836.955 53.783 837.758 51.0258L845.773 23.5128H846.722L846.726 23.5076L847.838 23.5128H852.001L852.002 23.5331L861.889 23.5804C860.747 28.8308 859.722 32.3395 858.813 34.1064C858.165 35.368 857.34 36.4944 856.341 37.486ZM889.931 23.5128C890.862 27.4563 889.422 29.4278 885.61 29.4278C881.8 29.4278 876.084 27.4563 868.462 23.5128H889.931Z" fill="black"/>
<path fill-rule="evenodd" clip-rule="evenodd" d="M802.458 160.789L834.549 132.195C839.22 128.032 845.28 125.769 851.537 125.849L888.078 126.319C893.069 126.384 897.149 130.32 897.392 135.306C897.621 140.025 893.982 144.037 889.263 144.266C889.155 144.272 889.048 144.275 888.941 144.276L858.004 144.614C856.111 144.635 854.594 146.186 854.614 148.079C854.614 148.08 854.614 148.081 854.614 148.083C854.638 149.999 856.17 151.555 858.085 151.607L890.018 152.482C894.369 152.602 897.842 156.151 897.864 160.504C897.887 164.793 894.428 168.289 890.139 168.312C890.125 168.312 890.111 168.312 890.098 168.312H859.658C857.787 168.312 856.269 169.83 856.269 171.702C856.269 171.715 856.269 171.729 856.269 171.743C856.293 173.801 857.606 175.623 859.551 176.298L879.042 183.065C882.415 184.236 884.2 187.919 883.029 191.292C882.977 191.442 882.92 191.59 882.857 191.735C881.297 195.348 877.231 197.166 873.497 195.921L841.811 185.347L824.668 196.788C815.877 202.656 803.993 200.285 798.126 191.494C797.574 190.667 797.087 189.798 796.67 188.896C795.177 185.664 794.712 181.034 795.273 175.005C795.784 169.529 798.351 164.448 802.458 160.789Z" fill="white"/>
<path d="M801.181 194.393L807.158 190.546C805.107 188.586 803.451 186.177 802.052 183.376C800.025 179.317 800.691 171.554 804.014 160.039L802.882 161.048C798.835 164.653 796.306 169.662 795.805 175.061C795.252 181.022 795.712 185.585 797.173 188.747C797.58 189.628 798.055 190.476 798.593 191.284C799.358 192.433 800.228 193.471 801.181 194.393ZM801.717 194.892C807.947 200.46 817.37 201.353 824.642 196.5L826.296 195.396C819.724 196.584 814.379 195.614 810.095 192.862C809.241 192.313 808.444 191.706 807.698 191.043L801.717 194.892ZM804.391 158.752C804.392 158.75 804.392 158.748 804.393 158.746C804.433 158.611 804.547 158.518 804.677 158.497L834.496 131.927C839.232 127.707 845.374 125.412 851.714 125.494L888.273 125.965C893.446 126.031 897.675 130.116 897.926 135.289C898.165 140.203 894.379 144.381 889.47 144.621C889.359 144.626 889.247 144.629 889.135 144.631L858.185 144.969C856.49 144.987 855.131 146.378 855.15 148.074V148.078C855.171 149.804 856.549 151.205 858.272 151.252L890.217 152.128C894.755 152.252 898.376 155.958 898.4 160.502C898.423 164.987 894.81 168.643 890.33 168.667H890.287H859.835C858.161 168.667 856.804 170.026 856.804 171.702C856.804 171.72 856.804 171.72 856.804 171.738C856.827 173.647 858.043 175.336 859.845 175.962L879.345 182.731C882.897 183.964 884.778 187.847 883.546 191.404C883.491 191.564 883.43 191.721 883.363 191.876C881.729 195.659 877.477 197.562 873.571 196.259L842.044 185.738L825.035 197.09C816.077 203.068 803.974 200.646 798.003 191.678C797.444 190.839 796.952 189.959 796.529 189.045C795.007 185.751 794.535 181.07 795.099 174.996C795.617 169.417 798.23 164.242 802.41 160.517L804.391 158.752ZM805.013 159.148C801.465 171.099 800.703 179.088 802.686 183.059C804.646 186.983 807.114 190.103 810.478 192.265C814.857 195.078 820.4 195.962 827.346 194.464C827.443 194.443 827.539 194.464 827.616 194.514L841.939 184.955L873.795 195.586C877.352 196.772 881.224 195.039 882.712 191.594C882.772 191.455 882.827 191.314 882.876 191.171C883.98 187.985 882.295 184.506 879.112 183.402L859.613 176.633C857.529 175.909 856.122 173.954 856.095 171.747C856.095 171.724 856.095 171.724 856.095 171.702C856.095 169.633 857.769 167.957 859.835 167.957H890.287H890.326C894.415 167.935 897.712 164.599 897.691 160.506C897.668 156.344 894.353 152.951 890.198 152.837L858.252 151.962C856.148 151.904 854.466 150.193 854.441 148.087V148.083C854.418 145.994 856.091 144.282 858.177 144.259L889.127 143.921C889.23 143.92 889.333 143.916 889.436 143.912C893.954 143.691 897.438 139.846 897.218 135.323C896.985 130.524 893.063 126.736 888.264 126.674L851.705 126.204C845.542 126.124 839.572 128.355 834.967 132.457L805.013 159.148Z" fill="black"/>
<path fill-rule="evenodd" clip-rule="evenodd" d="M962.41 134.581L962.415 135.543C962.439 140.45 966.418 144.416 971.33 144.416H978.051C972.497 144.843 968.872 146.657 967.179 149.858C964.518 154.898 966.447 161.143 971.49 163.805C972.974 164.59 974.629 165 976.307 165H979.233L978.434 165.392C972.814 168.152 970.488 174.948 973.249 180.571C973.414 180.911 973.598 181.241 973.797 181.562C976.486 185.305 981.7 186.16 985.439 183.473C985.689 183.294 985.93 183.101 986.157 182.895L991.376 178.194C994.259 175.598 995.611 171.71 994.968 167.886C994.926 167.607 994.878 167.355 994.831 167.129C994.562 165.75 993.616 163.7 991.995 160.978C993.101 158.77 993.413 156.088 992.94 152.933C992.468 149.779 991.13 147.018 988.923 144.653C990 141.898 990.156 138.823 989.395 135.425C989.097 134.08 988.682 132.933 988.147 131.985C987.174 130.247 985.415 129.09 983.43 128.882L970.238 127.497C966.343 127.088 962.854 129.914 962.448 133.808C962.42 134.065 962.41 134.323 962.41 134.581Z" fill="white"/>
<path d="M979.332 164.408L991.901 160.448C992.912 158.335 993.2 155.772 992.747 152.749C992.283 149.674 990.984 146.986 988.838 144.677V144.77L977.942 144.556C972.663 145.015 969.245 146.765 967.648 149.787C965.081 154.651 966.934 160.68 971.798 163.253C973.23 164.011 974.827 164.408 976.449 164.408H979.332ZM979.521 165.093L978.737 165.477C973.301 168.146 971.051 174.725 973.717 180.17C973.882 180.501 974.057 180.824 974.241 181.118C976.817 184.705 981.809 185.523 985.392 182.945C985.628 182.774 985.855 182.59 986.072 182.395L991.286 177.699C994.084 175.18 995.398 171.404 994.77 167.691C994.727 167.422 994.68 167.179 994.637 166.961C994.387 165.672 993.503 163.733 991.99 161.164L979.521 165.093ZM978.207 143.852L988.833 144.06C989.802 141.433 989.929 138.504 989.206 135.266C988.913 133.954 988.507 132.841 987.996 131.926C987.075 130.286 985.42 129.194 983.548 128.998L970.356 127.613C966.655 127.224 963.341 129.912 962.954 133.616C962.93 133.86 962.916 134.105 962.916 134.35L962.921 135.305C962.944 140.016 966.764 143.824 971.471 143.824H978.207V143.852ZM967.024 149.455C968.286 147.065 970.569 145.428 973.859 144.534H971.471C966.376 144.534 962.235 140.41 962.212 135.308L962.207 134.354C962.207 134.082 962.221 133.812 962.25 133.542C962.68 129.448 966.343 126.478 970.432 126.907L983.624 128.292C985.723 128.512 987.58 129.738 988.615 131.578C989.164 132.557 989.589 133.735 989.896 135.11C990.653 138.49 990.516 141.567 989.49 144.337C991.655 146.718 992.974 149.49 993.446 152.644C993.919 155.784 993.621 158.48 992.553 160.724C994.132 163.396 995.058 165.423 995.337 166.824C995.379 167.048 995.427 167.298 995.469 167.572C996.136 171.525 994.737 175.545 991.759 178.226L986.55 182.923C986.314 183.135 986.063 183.335 985.808 183.521C981.903 186.328 976.468 185.438 973.651 181.513C973.443 181.179 973.253 180.835 973.083 180.482C970.332 174.866 972.492 168.117 977.895 165.118H976.449C974.709 165.118 972.998 164.693 971.462 163.88C966.258 161.125 964.268 154.666 967.024 149.455ZM971.462 129.502C971.656 129.499 971.817 129.656 971.821 129.852C971.821 130.048 971.665 130.209 971.471 130.212C968.858 130.249 967.7 131.812 967.922 135.086C968.149 138.375 969.311 139.85 971.443 139.702C971.642 139.688 971.807 139.835 971.821 140.031C971.835 140.226 971.689 140.396 971.495 140.41C968.9 140.591 967.463 138.77 967.217 135.135C966.967 131.485 968.404 129.546 971.462 129.502ZM974.851 149.741C975.045 149.724 975.215 149.869 975.234 150.065C975.248 150.26 975.106 150.431 974.908 150.448C972.303 150.667 971.259 152.307 971.708 155.558C972.162 158.822 973.428 160.213 975.546 159.916C975.74 159.889 975.919 160.024 975.943 160.218C975.971 160.412 975.834 160.592 975.64 160.619C973.069 160.981 971.509 159.264 971.008 155.655C970.502 152.031 971.802 149.997 974.851 149.741ZM979.819 170.437C980.013 170.397 980.197 170.52 980.24 170.712C980.277 170.903 980.155 171.092 979.965 171.132C977.408 171.666 976.567 173.422 977.413 176.593C978.259 179.778 979.682 181.005 981.747 180.452C981.937 180.401 982.13 180.514 982.182 180.703C982.234 180.892 982.121 181.087 981.932 181.137C979.422 181.81 977.664 180.297 976.728 176.776C975.782 173.24 976.827 171.063 979.819 170.437Z" fill="black"/>
<path fill-rule="evenodd" clip-rule="evenodd" d="M672.721 233.942L684.198 353.792H690.106L684.479 232.787C684.331 229.612 681.638 227.158 678.462 227.305C678.365 227.31 678.268 227.316 678.171 227.326C674.841 227.651 672.402 230.611 672.721 233.942Z" fill="white"/>
<path d="M672.37 233.752L683.876 353.923H690.479L684.834 232.547C684.678 229.176 681.818 226.571 678.447 226.728C678.344 226.732 678.241 226.739 678.138 226.75C674.613 227.094 672.032 230.226 672.37 233.752ZM684.521 353.214L673.076 233.684C672.775 230.548 675.071 227.761 678.207 227.456C678.297 227.447 678.389 227.44 678.48 227.436C681.46 227.297 683.987 229.6 684.126 232.58L689.736 353.214H684.521Z" fill="black"/>
<path d="M681.302 357.252C681.228 357.433 681.021 357.52 680.84 357.446C680.659 357.372 680.572 357.165 680.646 356.984C685.324 345.548 688.046 337.557 688.812 333.031C688.845 332.838 689.028 332.708 689.221 332.741C689.414 332.774 689.544 332.957 689.511 333.149C688.734 337.742 685.999 345.77 681.302 357.252ZM688.552 317.239C688.615 317.424 688.515 317.625 688.329 317.688C688.144 317.75 687.943 317.65 687.88 317.464C685.799 311.256 681.593 305.961 675.252 301.572C675.092 301.46 675.051 301.24 675.162 301.079C675.274 300.918 675.495 300.877 675.656 300.989C682.117 305.461 686.42 310.879 688.552 317.239ZM683.466 342.376C683.386 342.554 683.176 342.633 682.997 342.552C682.819 342.472 682.74 342.262 682.821 342.084C683.453 340.688 683.877 339.551 684.091 338.678C687.033 326.681 685.209 317.914 680 311.682C679.874 311.532 679.894 311.308 680.044 311.183C680.195 311.057 680.418 311.077 680.544 311.227C685.902 317.637 687.774 326.636 684.779 338.847C684.553 339.769 684.115 340.944 683.466 342.376ZM675.11 228.082C675.085 227.888 675.222 227.71 675.417 227.685C675.611 227.661 675.789 227.798 675.813 227.992C678.885 252.074 690.414 264.809 710.449 266.305C710.644 266.319 710.79 266.489 710.776 266.685C710.761 266.88 710.591 267.026 710.396 267.012C690.001 265.49 678.222 252.478 675.11 228.082ZM680.3 227.717C680.282 227.522 680.425 227.349 680.62 227.33C680.815 227.312 680.988 227.455 681.007 227.65C683.02 248.855 692.606 259.911 709.828 261.178C710.024 261.192 710.17 261.362 710.156 261.557C710.142 261.753 709.972 261.899 709.776 261.885C692.183 260.59 682.345 249.245 680.3 227.717Z" fill="black"/>
<path fill-rule="evenodd" clip-rule="evenodd" d="M869.017 39.6018C868.103 39.6018 867.362 38.7543 867.362 37.7088C867.362 36.6637 868.103 35.8162 869.017 35.8162C869.93 35.8162 870.671 36.6637 870.671 37.7088C870.671 38.7543 869.93 39.6018 869.017 39.6018ZM883.67 39.6018C882.756 39.6018 882.015 38.7543 882.015 37.7088C882.015 36.6637 882.756 35.8162 883.67 35.8162C884.583 35.8162 885.324 36.6637 885.324 37.7088C885.324 38.7543 884.583 39.6018 883.67 39.6018ZM865.742 36.0454C865.616 36.1953 865.392 36.2137 865.242 36.087C865.093 35.9603 865.075 35.7363 865.201 35.5869C865.258 35.5203 865.359 35.4092 865.501 35.2684C865.735 35.0358 865.998 34.8037 866.287 34.5863C867.128 33.9524 868.007 33.5686 868.894 33.5686C870.178 33.5686 870.881 33.8754 871.591 34.6548C871.703 34.7777 871.816 34.9124 871.965 35.0963C872.009 35.1502 872.279 35.4877 872.364 35.5921C872.488 35.7439 872.465 35.9674 872.313 36.0913C872.162 36.2151 871.938 36.1924 871.815 36.0402C871.728 35.9339 871.456 35.5954 871.414 35.5434C871.273 35.369 871.167 35.2442 871.066 35.1327C870.492 34.5021 869.98 34.2781 868.894 34.2781C868.188 34.2781 867.442 34.6038 866.713 35.1535C866.452 35.3501 866.212 35.5614 866 35.7722C865.874 35.898 865.786 35.9939 865.742 36.0454ZM880.876 36.0355C880.755 36.1896 880.532 36.2161 880.378 36.0951C880.224 35.9741 880.197 35.751 880.318 35.5969C880.371 35.5302 880.465 35.4187 880.597 35.2778C880.815 35.0448 881.061 34.8122 881.329 34.5938C882.115 33.9562 882.939 33.5686 883.776 33.5686C884.98 33.5686 885.643 33.8806 886.306 34.6647C886.41 34.7876 886.516 34.9224 886.654 35.1062C886.695 35.1606 886.946 35.4981 887.025 35.6021C887.143 35.7585 887.112 35.9811 886.956 36.0993C886.8 36.2175 886.578 36.1868 886.459 36.0303C886.379 35.9235 886.127 35.5855 886.088 35.5335C885.957 35.3591 885.859 35.2343 885.765 35.1232C885.236 34.4974 884.771 34.2781 883.776 34.2781C883.132 34.2781 882.447 34.6005 881.775 35.1455C881.534 35.3416 881.312 35.5524 881.115 35.7628C880.998 35.888 880.916 35.984 880.876 36.0355ZM878.388 42.5594H881.178L878.058 34.5253C877.986 34.3424 878.077 34.1368 878.26 34.0659C878.442 33.995 878.647 34.0852 878.718 34.2677L882.027 42.7853C882.118 43.0184 881.946 43.2689 881.697 43.2689H878.388C878.192 43.2689 878.034 43.11 878.034 42.9144C878.034 42.7182 878.192 42.5594 878.388 42.5594ZM876.665 47.4856C876.492 47.5783 876.277 47.5135 876.185 47.3405C876.092 47.1675 876.157 46.9524 876.33 46.8603C877.614 46.1716 878.851 46.1716 879.991 46.8702C880.158 46.9728 880.211 47.1911 880.108 47.3585C880.006 47.5253 879.788 47.5778 879.621 47.4757C878.702 46.9127 877.733 46.9127 876.665 47.4856Z" fill="black"/>
<path fill-rule="evenodd" clip-rule="evenodd" d="M615.895 255.36L634.802 313.8L728.155 301.26V232.883L635.932 251.348L634.802 259.382L628.753 252.786L615.895 255.36Z" fill="white"/>
<path d="M629.016 252.33C628.932 252.239 628.807 252.197 628.685 252.222L615.826 254.796C615.618 254.838 615.493 255.051 615.558 255.253L634.465 313.693C634.518 313.856 634.68 313.958 634.85 313.936L728.204 301.396C728.38 301.372 728.511 301.222 728.511 301.044V232.667C728.511 232.443 728.306 232.276 728.087 232.32L635.864 250.785C635.716 250.814 635.603 250.934 635.582 251.083L634.557 258.373L629.016 252.33ZM628.628 252.956L634.541 259.406C634.744 259.627 635.112 259.512 635.154 259.216L636.249 251.43L727.802 233.099V300.734L635.049 313.194L616.356 255.414L628.628 252.956Z" fill="black"/>
<path fill-rule="evenodd" clip-rule="evenodd" d="M595.098 418.038H626.531C638.912 385.778 650.279 365.638 660.633 357.615C661.245 357.141 657.598 351.887 649.692 341.853C654.817 345.909 658.362 348.512 660.327 349.66C661.252 350.201 661.331 342.472 660.563 326.474L669.026 352.12C672.248 350.5 674.705 349.365 676.398 348.714C700.189 339.565 719.727 362.674 735.01 418.038H1054.54" fill="white"/>
<path d="M660.139 349.853C660.476 350.05 660.781 349.867 660.947 349.512C661.055 349.282 661.137 348.932 661.205 348.451C661.333 347.534 661.406 346.105 661.426 344.159C661.461 340.716 661.329 335.639 661.029 328.928L668.681 352.117C668.749 352.323 668.983 352.42 669.177 352.323C672.389 350.708 674.837 349.577 676.516 348.931C700.028 339.89 719.425 362.833 734.659 418.018C734.702 418.172 734.842 418.278 735.001 418.278H1291.81C1292 418.278 1292.16 418.12 1292.16 417.924C1292.16 417.728 1292 417.569 1291.81 417.569H735.271C719.948 362.214 700.296 339.028 676.262 348.269C674.621 348.9 672.277 349.979 669.225 351.505L660.891 326.249C660.762 325.857 660.181 325.965 660.2 326.377C660.584 334.37 660.756 340.296 660.717 344.152C660.697 346.07 660.625 347.473 660.502 348.353C660.452 348.714 660.393 348.98 660.333 349.143C658.355 347.959 654.874 345.396 649.903 341.461C649.573 341.2 649.144 341.628 649.405 341.958C653.353 346.97 656.238 350.788 658.056 353.407C658.961 354.71 659.6 355.715 659.971 356.416C660.15 356.752 660.263 357.014 660.312 357.193C660.321 357.228 660.328 357.257 660.331 357.28C649.955 365.375 638.618 385.463 626.278 417.569H1.18849C0.992804 417.569 0.833984 417.728 0.833984 417.924C0.833984 418.12 0.992804 418.278 1.18849 418.278H626.522C626.669 418.278 626.8 418.188 626.853 418.051C639.212 385.85 650.555 365.752 660.841 357.781C661.423 357.331 660.711 355.988 658.639 353.003C657.102 350.789 654.813 347.731 651.772 343.829C655.681 346.869 658.467 348.876 660.139 349.853Z" fill="black" fill-opacity="0.1"/>
<path d="M872.669 0.917725H859.243C853.211 0.917725 848.313 5.78308 848.253 11.8078L840.283 23.3105C840.12 23.5459 840.288 23.8678 840.574 23.8678H894.459C894.772 23.8678 894.932 23.492 894.714 23.2666L883.185 11.3021C883.108 5.55378 878.429 0.917725 872.669 0.917725ZM848.899 12.1219C848.94 12.0625 848.962 11.9919 848.962 11.9196C848.962 6.23543 853.565 1.6275 859.243 1.6275H872.669C878.086 1.6275 882.477 6.02358 882.477 11.4464C882.477 11.5383 882.513 11.6266 882.577 11.6928L893.625 23.1579H841.252L848.899 12.1219Z" fill="black"/>
<path fill-rule="evenodd" clip-rule="evenodd" d="M882.686 11.6829L848.455 12.1561L846.092 15.7051H886.506L882.686 11.6829Z" fill="#5D8CFF"/>
<path d="M882.919 11.0909L848.688 11.5641C848.572 11.5657 848.463 11.6248 848.398 11.7221L846.035 15.2711C845.878 15.5069 846.047 15.8228 846.33 15.8228H886.743C887.055 15.8228 887.215 15.4495 887.001 15.2234L883.181 11.2012C883.113 11.1295 883.018 11.0895 882.919 11.0909ZM885.917 15.113H846.992L848.884 12.2712L882.774 11.8028L885.917 15.113Z" fill="black"/>
<path fill-rule="evenodd" clip-rule="evenodd" d="M786.772 408.697L782.754 428.098H798.352H858.855C855.366 420.727 851.269 415.601 846.565 412.719C841.861 409.838 833.275 408.497 820.804 408.697L827.185 375.573L788.899 375.81L788.426 400.652L786.772 408.697Z" fill="white"/>
<path fill-rule="evenodd" clip-rule="evenodd" d="M889.58 405.857V428.335L899.034 428.098H959.536C956.047 420.727 951.951 415.601 947.247 412.719C942.543 409.837 933.956 408.496 921.486 408.697L927.394 376.104L886.035 375.809L889.108 400.652L889.58 405.857Z" fill="white"/>
<path fill-rule="evenodd" clip-rule="evenodd" d="M788.426 400.89C792.045 401.475 794.881 403.763 796.934 407.751C798.987 411.739 800.091 417.102 800.243 423.84L783.699 423.603" fill="#5D8CFF"/>
<path fill-rule="evenodd" clip-rule="evenodd" d="M889.58 400.89C896.035 402.422 900.289 405.182 902.342 409.17C904.396 413.158 905.341 418.048 905.178 423.84L889.58 423.603V400.89Z" fill="#5D8CFF"/>
<path d="M800.182 375.622L802.814 357.473H797.17V356.763H802.917L804.323 347.062H799.297V346.353H826.713V347.062H821.217L819.42 356.763H824.586V357.473H819.288L815.944 375.524L827.615 375.452L822.387 402.59L824.193 397.639C824.268 397.431 824.363 397.23 824.475 397.039C825.5 395.293 827.747 394.708 829.493 395.733C829.787 395.905 830.053 396.123 830.278 396.378C831.464 397.718 831.34 399.764 830.001 400.949L821.599 408.391C823.18 407.997 827.063 406.999 832.768 405.514C832.958 405.465 833.151 405.579 833.201 405.768C833.25 405.958 833.136 406.151 832.947 406.201C828.791 407.282 825.794 408.057 823.816 408.561C834.728 408.61 842.367 409.968 846.75 412.653C851.52 415.575 855.659 420.754 859.175 428.183L859.415 428.689H782.318L786.424 408.862L788.072 400.85L788.551 375.694L800.182 375.622ZM800.899 375.617L807.755 375.575L810.526 357.473H803.531L800.899 375.617ZM808.473 375.57L815.222 375.529L818.567 357.473H811.243L808.473 375.57ZM821.105 409.284C821.074 409.289 821.043 409.291 821.011 409.289L813.015 409.524C812.82 409.53 812.657 409.376 812.65 409.18C812.645 408.985 812.799 408.821 812.995 408.816L820.135 408.605L811.491 400.949C810.152 399.764 810.028 397.718 811.213 396.378C811.439 396.123 811.704 395.905 811.998 395.733C813.745 394.708 815.992 395.293 817.017 397.039C817.129 397.23 817.223 397.431 817.299 397.639L820.746 407.091L820.857 406.787L826.756 376.166L789.246 376.398L788.786 400.623C796.145 402.811 800.364 410.384 800.592 423.248H855.721C852.93 418.691 849.815 415.362 846.38 413.258C841.785 410.443 833.353 409.11 821.105 409.284ZM821.542 406.977L821.422 407.6L829.531 400.418C830.577 399.492 830.674 397.894 829.748 396.849C829.571 396.649 829.364 396.479 829.135 396.344C827.726 395.518 825.913 395.989 825.087 397.398C824.996 397.552 824.92 397.714 824.859 397.882L821.542 406.977ZM856.147 423.957H784.022L783.189 427.98H858.292C857.6 426.551 856.885 425.21 856.147 423.957ZM784.169 423.248H799.883C799.659 410.735 795.626 403.463 788.696 401.337L787.118 409.005L784.169 423.248ZM816.633 397.882C816.572 397.714 816.496 397.552 816.405 397.398C815.578 395.989 813.766 395.518 812.357 396.344C812.128 396.479 811.921 396.649 811.744 396.849C810.818 397.894 810.915 399.492 811.961 400.418L820.228 407.74L816.633 397.882ZM820.496 347.062H812.837L811.352 356.763H818.699L820.496 347.062ZM812.12 347.062H805.04L803.633 356.763H810.635L812.12 347.062Z" fill="black"/>
<path fill-rule="evenodd" clip-rule="evenodd" d="M785.354 123.121H777.555L786.063 109.635" fill="#5D8CFF"/>
<path d="M894.343 375.502L891.729 357.473H887.217V356.763H891.626L890.219 347.062H885.799V346.353H914.396V347.062H908.289L909.266 356.763H914.632V357.473H909.337L911.162 375.599L927.815 375.694L922.424 406.951L925.82 397.639C925.896 397.431 925.99 397.23 926.102 397.039C927.128 395.293 929.374 394.708 931.121 395.733C931.415 395.905 931.68 396.123 931.906 396.378C933.092 397.718 932.968 399.764 931.629 400.949L923.602 408.057C925.602 407.549 928.963 406.682 933.45 405.514C933.64 405.465 933.833 405.579 933.883 405.768C933.932 405.958 933.818 406.151 933.629 406.201C929.475 407.282 926.48 408.056 924.501 408.56C935.538 408.592 943.254 409.949 947.669 412.653C952.438 415.575 956.577 420.754 960.094 428.183L960.331 428.689H889.229L889.226 428.338L888.993 400.935L885.631 375.453L894.343 375.502ZM895.06 375.507L902.179 375.547L900.577 357.473H892.445L895.06 375.507ZM902.891 375.551L910.449 375.594L908.625 357.473H901.289L902.891 375.551ZM889.653 400.542C899.921 402.611 905.22 410.216 905.526 423.248H956.64C953.848 418.691 950.734 415.362 947.298 413.258C942.72 410.453 934.333 409.119 922.156 409.282C922.109 409.292 922.061 409.292 922.015 409.284C921.931 409.284 921.847 409.286 921.762 409.287C921.74 409.29 921.716 409.291 921.693 409.289L913.697 409.524C913.502 409.53 913.339 409.376 913.333 409.18C913.327 408.985 913.481 408.821 913.677 408.816L920.817 408.605L912.173 400.949C910.834 399.764 910.71 397.718 911.895 396.378C912.122 396.123 912.386 395.905 912.681 395.733C914.427 394.708 916.674 395.293 917.699 397.039C917.811 397.23 917.905 397.431 917.981 397.639L921.6 407.561L926.974 376.398L886.44 376.166L889.653 400.542ZM889.702 401.276L889.891 423.248H904.817C904.517 410.615 899.487 403.327 889.702 401.276ZM957.065 423.957H889.897L889.932 427.98H959.211C958.52 426.551 957.802 425.21 957.065 423.957ZM917.315 397.882C917.254 397.714 917.178 397.552 917.087 397.398C916.26 395.989 914.448 395.518 913.039 396.344C912.81 396.479 912.603 396.649 912.426 396.849C911.5 397.894 911.597 399.492 912.643 400.418L920.91 407.74L917.315 397.882ZM926.486 397.882L922.891 407.74L931.159 400.418C932.204 399.492 932.301 397.894 931.375 396.849C931.199 396.649 930.992 396.479 930.762 396.344C929.353 395.518 927.541 395.989 926.714 397.398C926.624 397.552 926.548 397.714 926.486 397.882ZM907.576 347.062H900.367L901.226 356.763H908.553L907.576 347.062ZM899.655 347.062H890.936L892.342 356.763H900.515L899.655 347.062Z" fill="black"/>
<path d="M663.712 280.669L664.41 285.074L660.357 285.716L660.88 289.019L655.67 289.844L655.147 286.541L640.848 288.805L640.15 284.401L652.457 269.56L657.668 268.735L659.66 281.311L663.712 280.669ZM645.766 283.512L654.449 282.136L653.284 274.776L645.766 283.512ZM678.207 286.572C670.16 287.846 665.751 284.742 664.682 277.991C663.617 271.268 666.855 266.982 674.902 265.708C682.92 264.439 687.357 267.538 688.417 274.231C689.482 280.954 686.224 285.302 678.207 286.572ZM677.514 282.196C682.087 281.472 683.808 278.853 683.207 275.057C682.61 271.29 680.168 269.36 675.595 270.084C671.022 270.808 669.291 273.369 669.892 277.165C670.498 280.99 672.94 282.921 677.514 282.196ZM714.076 272.692L714.774 277.097L710.721 277.739L711.245 281.042L706.035 281.867L705.512 278.564L691.213 280.829L690.515 276.424L702.822 261.583L708.032 260.758L710.024 273.334L714.076 272.692ZM696.13 275.535L704.814 274.159L703.648 266.799L696.13 275.535Z" fill="black"/>
<path d="M785.972 109.254C786.015 109.093 786.052 108.943 786.082 108.804L786.47 100.622C787.112 87.059 798.284 76.3926 811.848 76.3926H838.532V77.1021H811.848C798.662 77.1021 787.802 87.4712 787.178 100.656L787.065 103.035C788.318 98.2236 790.735 93.9194 794.318 90.2231C799.72 84.6512 806.409 87.4282 814.24 98.3073C814.355 98.4661 814.319 98.6878 814.159 98.8026C814.001 98.917 813.779 98.8811 813.665 98.7218C806.054 88.149 799.824 85.563 794.827 90.7175C790.124 95.5681 787.484 101.484 786.89 108.246C786.874 108.434 786.84 108.651 786.788 108.897L785.71 131.655L785.001 131.621L785.398 123.239H777.793C777.513 123.239 777.344 122.931 777.493 122.695L785.972 109.254ZM785.432 122.53L786 110.54L778.436 122.53H785.432Z" fill="black"/>
<path d="M890.598 141.02C890.403 141.012 890.25 140.847 890.258 140.652C890.265 140.456 890.43 140.303 890.625 140.311C893.237 140.411 894.477 138.91 894.424 135.629C894.371 132.333 893.286 130.798 891.149 130.836C890.954 130.839 890.792 130.683 890.789 130.487C890.785 130.291 890.941 130.13 891.137 130.126C893.736 130.08 895.074 131.974 895.133 135.618C895.192 139.276 893.654 141.137 890.598 141.02ZM889.842 165.985C889.647 165.967 889.503 165.794 889.521 165.599C889.539 165.404 889.711 165.26 889.906 165.278C892.509 165.514 893.826 164.081 893.945 160.801C894.064 157.507 893.061 155.918 890.925 155.843C890.73 155.836 890.577 155.672 890.583 155.476C890.59 155.28 890.754 155.127 890.95 155.134C893.548 155.224 894.785 157.186 894.653 160.827C894.521 164.483 892.888 166.261 889.842 165.985ZM874.345 193.609C874.166 193.531 874.084 193.321 874.163 193.142C874.242 192.962 874.451 192.881 874.63 192.959C877.04 194.015 878.645 193.323 879.618 190.801C880.597 188.264 880.083 186.698 878.072 185.926C877.889 185.856 877.798 185.65 877.868 185.467C877.939 185.284 878.144 185.193 878.326 185.263C880.737 186.188 881.39 188.179 880.279 191.057C879.163 193.951 877.129 194.829 874.345 193.609ZM848.821 99.1328L849.506 99.3157C848.213 104.171 845.514 107.036 841.434 107.853L841.295 107.157C845.092 106.397 847.593 103.741 848.821 99.1328Z" fill="black"/>
<path d="M809.118 108.543L810.063 112.092C810.113 112.281 810.307 112.394 810.496 112.344C810.686 112.293 810.798 112.098 810.748 111.909L809.802 108.36C809.752 108.171 809.558 108.058 809.369 108.109C809.18 108.159 809.067 108.354 809.118 108.543Z" fill="black"/>
<path d="M809.381 108.798L812.453 109.508C812.644 109.551 812.834 109.433 812.878 109.241C812.922 109.05 812.803 108.86 812.612 108.816L809.54 108.106C809.349 108.062 809.159 108.181 809.115 108.372C809.071 108.563 809.19 108.754 809.381 108.798Z" fill="black"/>
<path d="M942.791 111.045C940.401 108.159 936.245 107.854 932.819 110.11C931.485 110.99 930.512 112.241 930.054 113.672C928.902 117.277 933.43 126.489 943.645 141.54C943.754 141.702 943.975 141.744 944.137 141.634C944.299 141.524 944.341 141.303 944.231 141.141C934.182 126.335 929.679 117.173 930.73 113.888C931.137 112.615 932.008 111.495 933.209 110.704C936.35 108.635 940.101 108.91 942.245 111.498C942.37 111.649 942.593 111.67 942.744 111.545C942.895 111.42 942.915 111.196 942.791 111.045Z" fill="black"/>
</svg>
